<svg width="24" height="24" viewBox="0 0 24 24" fill="none" xmlns="http://www.w3.org/2000/svg">
<path fill-rule="evenodd" clip-rule="evenodd" d="M14.3854 15.4456C11.7351 17.5682 7.85569 17.4011 5.3989 14.9444C2.76287 12.3083 2.76287 8.03445 5.3989 5.39842C8.03494 2.76238 12.3088 2.76238 14.9448 5.39842C17.4016 7.8552 17.5687 11.7346 15.446 14.3849L20.6017 19.5405C20.8946 19.8334 20.8946 20.3083 20.6017 20.6012C20.3088 20.8941 19.8339 20.8941 19.541 20.6012L14.3854 15.4456ZM6.45956 13.8837C4.40931 11.8334 4.40931 8.50933 6.45956 6.45908C8.50982 4.40882 11.8339 4.40882 13.8842 6.45908C15.9329 8.50782 15.9344 11.8286 13.8887 13.8792C13.8872 13.8807 13.8857 13.8822 13.8842 13.8837C13.8827 13.8852 13.8812 13.8867 13.8797 13.8882C11.8291 15.9339 8.50831 15.9324 6.45956 13.8837Z" fill="white"/>
</svg>
