<svg width="44" height="44" viewBox="0 0 44 44" fill="none" xmlns="http://www.w3.org/2000/svg">
<path d="M15.5103 20.6983L25.887 10.34C26.0574 10.1682 26.2602 10.0318 26.4836 9.9387C26.707 9.84562 26.9466 9.7977 27.1887 9.7977C27.4307 9.7977 27.6703 9.84562 27.8937 9.9387C28.1171 10.0318 28.3199 10.1682 28.4903 10.34C28.8318 10.6835 29.0234 11.1482 29.0234 11.6325C29.0234 12.1168 28.8318 12.5815 28.4903 12.925L19.4153 22.0917L28.4903 31.1667C28.8318 31.5102 29.0234 31.9748 29.0234 32.4592C29.0234 32.9435 28.8318 33.4082 28.4903 33.7517C28.3205 33.9249 28.118 34.0627 27.8946 34.1571C27.6712 34.2515 27.4312 34.3007 27.1887 34.3017C26.9461 34.3007 26.7061 34.2515 26.4827 34.1571C26.2593 34.0627 26.0568 33.9249 25.887 33.7517L15.5103 23.3933C15.3242 23.2217 15.1757 23.0133 15.0741 22.7814C14.9726 22.5495 14.9201 22.299 14.9201 22.0458C14.9201 21.7926 14.9726 21.5422 15.0741 21.3103C15.1757 21.0784 15.3242 20.87 15.5103 20.6983Z" fill="#1D1D1D"/>
</svg>
