<svg width="44" height="44" viewBox="0 0 44 44" fill="none" xmlns="http://www.w3.org/2000/svg">
<path d="M28.4897 20.6983L18.113 10.34C17.9426 10.1682 17.7398 10.0318 17.5164 9.9387C17.293 9.84562 17.0534 9.7977 16.8113 9.7977C16.5693 9.7977 16.3297 9.84562 16.1063 9.9387C15.8829 10.0318 15.6801 10.1682 15.5097 10.34C15.1682 10.6835 14.9766 11.1482 14.9766 11.6325C14.9766 12.1168 15.1682 12.5815 15.5097 12.925L24.5847 22.0917L15.5097 31.1667C15.1682 31.5102 14.9766 31.9748 14.9766 32.4592C14.9766 32.9435 15.1682 33.4082 15.5097 33.7517C15.6795 33.9249 15.882 34.0627 16.1054 34.1571C16.3288 34.2515 16.5688 34.3007 16.8113 34.3017C17.0539 34.3007 17.2939 34.2515 17.5173 34.1571C17.7407 34.0627 17.9432 33.9249 18.113 33.7517L28.4897 23.3933C28.6758 23.2217 28.8243 23.0133 28.9259 22.7814C29.0274 22.5495 29.0799 22.299 29.0799 22.0458C29.0799 21.7926 29.0274 21.5422 28.9259 21.3103C28.8243 21.0784 28.6758 20.87 28.4897 20.6983Z" fill="#1D1D1D"/>
</svg>
