<svg width="27" height="27" viewBox="0 0 27 27" fill="none" xmlns="http://www.w3.org/2000/svg">
<circle cx="13.5" cy="13.5" r="13.5" fill="#5FA052"/>
<path d="M18.8506 8.14238C17.5171 6.81348 15.739 6.0752 13.8622 6.0752C9.96036 6.0752 6.79939 9.2252 6.79939 13.1135C6.79939 14.3439 7.14512 15.5744 7.7378 16.608L6.75 20.2502L10.5037 19.2658C11.5409 19.8072 12.6768 20.1025 13.8622 20.1025C17.764 20.1025 20.925 16.9525 20.925 13.0643C20.8756 11.2432 20.1841 9.47129 18.8506 8.14238ZM17.2701 15.6236C17.122 16.0174 16.4305 16.4111 16.0848 16.4604C15.7884 16.5096 15.3933 16.5096 14.9982 16.4111C14.7512 16.3127 14.4055 16.2143 14.0104 16.0174C12.2323 15.2791 11.0963 13.5072 10.9976 13.3596C10.8988 13.2611 10.2567 12.4244 10.2567 11.5385C10.2567 10.6525 10.7012 10.2588 10.8494 10.0619C10.9976 9.86504 11.1951 9.86504 11.3433 9.86504C11.4421 9.86504 11.5902 9.86504 11.689 9.86504C11.7878 9.86504 11.936 9.81582 12.0841 10.1604C12.2323 10.5049 12.578 11.3908 12.6274 11.44C12.6768 11.5385 12.6768 11.6369 12.6274 11.7354C12.578 11.8338 12.5287 11.9322 12.4299 12.0307C12.3311 12.1291 12.2323 12.2768 12.1829 12.326C12.0841 12.4244 11.9854 12.5229 12.0841 12.6705C12.1829 12.8674 12.5287 13.4088 13.072 13.901C13.7634 14.4916 14.3067 14.6885 14.5043 14.7869C14.7018 14.8854 14.8006 14.8361 14.8994 14.7377C14.9982 14.6393 15.3439 14.2455 15.4427 14.0486C15.5415 13.8518 15.6896 13.901 15.8378 13.9502C15.986 13.9994 16.875 14.4424 17.0232 14.5408C17.2207 14.6393 17.3195 14.6885 17.3689 14.7377C17.4183 14.8854 17.4183 15.2299 17.2701 15.6236Z" fill="white"/>
</svg>
